<svg xmlns="http://www.w3.org/2000/svg" xmlns:xlink="http://www.w3.org/1999/xlink" version="1.1" x="0px" y="0px" viewBox="0 0 90 112.5" enable-background="new 0 0 90 90" xml:space="preserve"><path d="M62.883,73.4c1.76,0,3.188,1.427,3.188,3.188c0,1.754-1.428,3.181-3.188,3.181c-1.756,0-3.182-1.426-3.182-3.181  C59.701,74.827,61.123,73.4,62.883,73.4z M62.883,69.614c-3.85,0-6.969,3.12-6.969,6.975c0,3.848,3.119,6.968,6.969,6.968  c3.854,0,6.975-3.12,6.975-6.968C69.857,72.734,66.736,69.614,62.883,69.614z"/><path d="M40.139,73.4c1.76,0,3.188,1.427,3.188,3.188c0,1.754-1.428,3.181-3.188,3.181c-1.756,0-3.184-1.426-3.184-3.181  C36.955,74.827,38.377,73.4,40.139,73.4z M40.139,69.614c-3.85,0-6.969,3.12-6.969,6.975c0,3.848,3.119,6.968,6.969,6.968  c3.848,0,6.973-3.12,6.973-6.968C47.111,72.734,43.992,69.614,40.139,69.614z"/><path d="M9.029,5.125c-0.063,0-0.131,0-0.193,0.005c-1.881,0.13-2.432,2.635-0.775,3.542l7.469,4.229  c0.676,0.38,1.166,1.01,1.375,1.754L29.342,59.15c1.203,4.292,5.135,7.287,9.598,7.287h31.277c2.52,0,2.52-3.781,0-3.781H38.939  c-2.781,0-5.203-1.839-5.953-4.521l-0.598-2.146h32.77c4.709,0,8.875-3.088,10.246-7.598l4.254-14l3.172-10.443  c0.734-2.411-2.879-3.516-3.613-1.104l-3.178,10.453l-4.25,13.995c-0.891,2.933-3.568,4.916-6.631,4.916H31.326L20.549,13.641  c-0.473-1.709-1.613-3.158-3.16-4.033L9.924,5.384C9.654,5.223,9.346,5.135,9.029,5.125z"/><path d="M51.242,11.816c7.916,0,14.291,6.381,14.291,14.297c0,7.917-6.375,14.292-14.291,14.292s-14.291-6.375-14.291-14.292  C36.951,18.198,43.326,11.816,51.242,11.816z M51.242,8.037c-9.959,0-18.068,8.118-18.068,18.077  c0,9.964,8.109,18.073,18.068,18.073c9.963,0,18.072-8.109,18.072-18.073C69.314,16.155,61.205,8.037,51.242,8.037z"/><path d="M45.248,18.217c-1.699,0-2.537,2.068-1.313,3.251l4.641,4.64l-4.641,4.636c-0.777,0.735-0.793,1.959-0.037,2.708  c0.75,0.754,1.975,0.734,2.709-0.037l4.641-4.635l4.635,4.635c0.734,0.771,1.959,0.791,2.709,0.037  c0.75-0.75,0.734-1.974-0.037-2.708l-4.635-4.636l4.635-4.64c1.244-1.204,0.354-3.302-1.369-3.251  c-0.496,0.017-0.959,0.224-1.303,0.579l-4.635,4.64l-4.641-4.64C46.248,18.426,45.758,18.217,45.248,18.217z"/><text x="0" y="105" fill="#000000" font-size="5px" font-weight="bold" font-family="'Helvetica Neue', Helvetica, Arial-Unicode, Arial, Sans-serif">Created by Cuputo</text></svg>